<?xml version="1.0" standalone="no"?>
<!DOCTYPE svg PUBLIC "-//W3C//DTD SVG 20010904//EN"
 "http://www.w3.org/TR/2001/REC-SVG-20010904/DTD/svg10.dtd">
<svg version="1.0" xmlns="http://www.w3.org/2000/svg"
 width="700.000000pt" height="700.000000pt" viewBox="0 0 700.000000 700.000000"
 preserveAspectRatio="xMidYMid meet">
<metadata>
Created by potrace 1.14, written by Peter Selinger 2001-2017
</metadata>
<g transform="translate(0.000000,700.000000) scale(0.100000,-0.100000)"
fill="#000000" stroke="none">
<path d="M3500 4700 l0 -1420 -38 24 c-106 67 -264 131 -392 160 -117 27 -126
28 -285 31 -124 2 -169 -1 -260 -20 -128 -26 -246 -65 -330 -108 -59 -31 -185
-106 -195 -117 -3 -3 -27 -23 -55 -44 -54 -43 -215 -205 -215 -217 0 -4 -6
-14 -13 -21 -29 -31 -111 -169 -145 -248 -45 -101 -56 -135 -86 -275 -28 -132
-33 -333 -10 -465 31 -183 107 -377 211 -533 63 -95 249 -281 341 -341 326
-215 673 -277 1062 -192 57 13 161 50 237 86 270 126 491 344 622 613 66 135
100 250 128 435 3 20 6 681 8 1467 1 787 3 1433 3 1437 1 4 23 1 50 -7 63 -19
742 -205 765 -210 17 -4 283 -77 347 -95 171 -49 431 -116 434 -111 2 3 4 232
4 508 l0 502 -31 10 c-18 5 -93 26 -167 45 -74 20 -151 40 -170 46 -19 5 -78
21 -130 35 -52 14 -137 37 -187 51 -51 14 -101 27 -110 29 -10 2 -45 11 -78
20 -33 9 -188 50 -345 91 -157 41 -307 82 -335 90 -101 29 -614 164 -624 164
-8 0 -11 -433 -11 -1420z"/>
</g>
</svg>
